M48
; DRILL file {KiCad (5.1.6)-1} date 09/22/20 13:19:28
; FORMAT={-:-/ absolute / inch / decimal}
; #@! TF.CreationDate,2020-09-22T13:19:28-05:00
; #@! TF.GenerationSoftware,Kicad,Pcbnew,(5.1.6)-1
FMAT,2
INCH
T1C0.0315
T2C0.0320
T3C0.0350
T4C0.0393
T5C0.0400
T6C0.0500
T7C0.1300
%
G90
G05
T1
X4.8Y-4.45
X4.8Y-4.55
X4.45Y-4.9
X4.55Y-4.9
X4.45Y-4.1
X4.55Y-4.1
X3.85Y-4.1
X3.95Y-4.1
X4.15Y-4.1
X4.25Y-4.1
T2
X5.2945Y-2.2898
X5.2945Y-2.5898
X5.65Y-4.0
X5.75Y-4.0
X3.7Y-2.3
X3.7Y-2.6
X5.65Y-3.75
X5.75Y-3.75
X5.9Y-2.4
X5.9Y-2.7
X6.05Y-5.25
X6.35Y-5.25
X6.05Y-3.75
X6.35Y-3.75
X4.15Y-5.1
X4.55Y-5.1
X7.65Y-4.55
X7.75Y-4.55
X7.85Y-4.55
X6.1Y-2.3
X6.1Y-2.6
X5.1Y-2.4
X5.1Y-2.7
X6.05Y-4.5
X6.35Y-4.5
X4.9Y-2.3
X4.9Y-2.6
X3.9Y-2.4
X3.9Y-2.7
X5.7Y-2.3
X5.7Y-2.6
X6.05Y-3.5
X6.35Y-3.5
X6.05Y-4.0
X6.35Y-4.0
X4.7Y-2.4
X4.7Y-2.7
X5.65Y-5.0
X5.75Y-5.0
X6.05Y-5.0
X6.35Y-5.0
X5.65Y-5.25
X5.75Y-5.25
X4.3Y-2.4
X4.3Y-2.7
X6.05Y-4.25
X6.35Y-4.25
X6.05Y-4.75
X6.35Y-4.75
X3.85Y-4.35
X3.85Y-4.65
X3.95Y-4.35
X3.95Y-4.65
X4.05Y-4.35
X4.05Y-4.65
X4.15Y-4.35
X4.15Y-4.65
X4.25Y-4.35
X4.25Y-4.65
X4.35Y-4.35
X4.35Y-4.65
X4.45Y-4.35
X4.45Y-4.65
X4.55Y-4.35
X4.55Y-4.65
X5.5Y-2.4
X5.5Y-2.7
X5.65Y-4.75
X5.75Y-4.75
X4.5Y-2.3
X4.5Y-2.6
X5.65Y-4.25
X5.75Y-4.25
X3.1Y-2.4
X3.1Y-2.7
X3.85Y-5.1
X3.95Y-5.1
X5.65Y-3.5
X5.75Y-3.5
X4.1Y-2.3
X4.1Y-2.6
X3.5Y-2.4
X3.5Y-2.7
X3.3Y-2.3
X3.3Y-2.6
X5.65Y-4.5
X5.75Y-4.5
T3
X3.95Y-5.35
X3.95Y-5.45
X3.95Y-5.55
X7.75Y-5.05
X7.75Y-5.15
X7.75Y-5.25
X8.5Y-2.8
X8.5Y-2.9
X8.5Y-3.0
X8.5Y-3.1
X8.5Y-3.2
X8.5Y-3.3
X8.5Y-3.4
X8.5Y-3.5
X8.5Y-3.6
X8.5Y-3.7
X8.5Y-3.8
X8.5Y-3.9
X8.5Y-4.0
X8.5Y-4.1
X7.25Y-3.95
X7.25Y-4.05
X7.25Y-4.15
X7.25Y-4.25
X7.25Y-4.35
X7.25Y-4.45
X7.25Y-4.55
X7.25Y-4.65
X4.25Y-3.25
X4.35Y-3.25
X4.45Y-3.25
X4.55Y-3.25
X4.65Y-3.25
X4.75Y-3.25
X4.85Y-3.25
X4.95Y-3.25
X7.75Y-1.95
X7.85Y-1.95
X7.95Y-1.95
X8.05Y-1.95
X8.15Y-1.95
X8.25Y-1.95
X8.35Y-1.95
X8.45Y-1.95
X4.75Y-5.3
X4.75Y-5.4
X4.75Y-5.5
X8.15Y-2.8
X8.15Y-2.9
X8.15Y-3.0
X8.15Y-3.1
X8.15Y-3.2
X8.15Y-3.3
X8.15Y-3.4
X8.15Y-3.5
X8.15Y-3.6
X8.15Y-3.7
X8.15Y-3.8
X7.75Y-2.3
X7.85Y-2.3
X7.95Y-2.3
X8.05Y-2.3
X8.15Y-2.3
X8.25Y-2.3
X8.35Y-2.3
X8.45Y-2.3
X4.2Y-5.35
X4.3Y-5.35
T4
X5.9115Y-1.8721
X5.9115Y-2.1279
X6.0885Y-1.8721
X6.0885Y-2.1279
X3.9115Y-1.8721
X3.9115Y-2.1279
X4.0885Y-1.8721
X4.0885Y-2.1279
X5.5115Y-1.8721
X5.5115Y-2.1279
X5.6885Y-1.8721
X5.6885Y-2.1279
X3.5115Y-1.8721
X3.5115Y-2.1279
X3.6885Y-1.8721
X3.6885Y-2.1279
X4.7115Y-1.8721
X4.7115Y-2.1279
X4.8885Y-1.8721
X4.8885Y-2.1279
X4.3115Y-1.8721
X4.3115Y-2.1279
X4.4885Y-1.8721
X4.4885Y-2.1279
X5.1115Y-1.8721
X5.1115Y-2.1279
X5.2885Y-1.8721
X5.2885Y-2.1279
X3.123Y-1.8721
X3.123Y-2.1279
X3.3Y-1.8721
X3.3Y-2.1279
T5
X8.45Y-1.95
X3.15Y-4.388
X3.15Y-4.496
X3.15Y-4.604
X3.15Y-4.712
X3.25Y-4.334
X3.25Y-4.442
X3.25Y-4.55
X3.25Y-4.658
X3.25Y-4.766
X4.75Y-5.5
X8.15Y-3.8
X8.45Y-2.3
X4.3Y-5.35
X3.95Y-5.55
X7.75Y-5.25
X8.5Y-4.1
X7.25Y-4.65
X4.25Y-3.25
T6
X8.15Y-5.4
X8.55Y-5.3
X8.55Y-5.5
X8.15Y-4.85
X8.55Y-4.75
X8.55Y-4.95
X7.6Y-3.7
X7.7Y-4.1
X7.8Y-3.7
T7
X3.2Y-4.057
X3.2Y-5.043
T0
M30
